<?xml version="1.0" standalone="no"?>
<!DOCTYPE svg PUBLIC "-//W3C//DTD SVG 20010904//EN"
 "http://www.w3.org/TR/2001/REC-SVG-20010904/DTD/svg10.dtd">
<svg version="1.0" xmlns="http://www.w3.org/2000/svg"
 width="1024.000000pt" height="1024.000000pt" viewBox="0 0 1024.000000 1024.000000"
 preserveAspectRatio="xMidYMid meet">
<metadata>
Created by potrace 1.14, written by Peter Selinger 2001-2017
</metadata>
<g transform="translate(0.000000,1024.000000) scale(0.100000,-0.100000)"
fill="#000000" stroke="none">
<path d="M6775 9966 c-151 -30 -301 -100 -365 -170 -14 -15 -36 -38 -50 -52
-24 -23 -21 -23 60 9 178 70 381 107 588 107 118 0 226 -11 472 -49 89 -14 90
1 3 42 -226 105 -516 151 -708 113z"/>
<path d="M6377 9960 c-16 -5 -34 -7 -41 -4 -35 13 -286 -81 -286 -107 0 -5 -4
-9 -10 -9 -16 0 -134 -129 -143 -156 -10 -27 -3 -54 12 -54 6 0 34 21 62 46
29 25 84 70 123 98 70 51 227 146 243 146 4 0 26 11 48 25 42 25 40 29 -8 15z"/>
<path d="M5480 9842 c-25 -9 -38 -28 -56 -82 -15 -47 -16 -68 -6 -189 6 -75
19 -205 28 -289 15 -130 16 -162 5 -215 -13 -65 -42 -107 -73 -107 -10 0 -18
-4 -18 -10 0 -5 -5 -10 -10 -10 -6 0 -29 -8 -50 -19 l-39 -19 -40 44 c-23 23
-41 46 -41 50 0 4 -10 18 -21 30 l-22 23 -44 -46 c-52 -53 -79 -61 -210 -64
-57 -1 -90 -6 -86 -12 4 -6 -5 -8 -22 -5 -25 5 -22 0 31 -55 33 -34 63 -65 69
-69 15 -11 -44 -52 -95 -65 -25 -7 -95 -12 -157 -13 -193 0 -362 -36 -420 -87
-28 -25 -28 -24 104 -112 175 -117 162 -143 -77 -156 -461 -23 -564 -103 -577
-445 -5 -131 16 -353 36 -373 4 -4 18 26 30 65 36 111 126 284 177 338 30 32
73 62 127 89 137 67 268 72 345 14 59 -44 46 -60 -128 -158 -114 -64 -189
-116 -285 -196 -179 -149 -226 -239 -226 -427 1 -116 13 -197 42 -275 24 -65
39 -61 39 9 0 70 30 204 59 268 30 64 69 109 111 124 64 23 65 -17 5 -175 -25
-65 -50 -127 -56 -138 -18 -30 -48 -180 -55 -270 -4 -45 -1 -126 5 -181 6 -55
12 -121 13 -146 0 -30 6 -49 14 -52 33 -13 10 -26 -45 -26 l-58 0 -7 -37 c-3
-21 -6 -72 -6 -114 l0 -76 39 -12 40 -12 -6 -49 c-7 -62 13 -225 39 -310 27
-89 97 -219 161 -298 100 -125 251 -216 447 -270 161 -45 256 -56 436 -49 186
6 273 26 403 89 235 113 411 409 411 692 0 70 2 76 28 94 107 76 296 67 430
-20 l63 -41 -7 -56 c-3 -31 -8 -58 -10 -60 -5 -5 -119 36 -167 60 -27 13 -60
19 -107 19 -113 0 -125 -21 -159 -275 -26 -196 -26 -195 34 -149 42 31 222 94
271 94 20 0 52 -9 70 -21 19 -11 34 -17 34 -12 0 21 30 -52 44 -109 27 -107
24 -122 -31 -154 -41 -23 -158 -107 -173 -124 -3 -3 -43 -39 -90 -80 -167
-148 -248 -248 -235 -290 3 -11 26 -37 51 -58 24 -22 44 -45 44 -51 0 -6 3
-11 8 -11 4 0 13 -14 20 -30 8 -17 19 -36 25 -43 27 -29 95 -176 105 -227 19
-93 22 -120 13 -120 -5 0 -8 -11 -8 -25 0 -13 -15 -41 -32 -60 -17 -20 -31
-40 -31 -45 0 -6 -12 -10 -27 -10 -23 0 -25 -2 -13 -11 12 -8 8 -9 -15 -6 -16
2 -24 2 -17 0 18 -6 15 -21 -6 -27 -23 -8 -142 36 -211 77 -78 46 -171 141
-215 219 -32 58 -41 68 -64 68 -40 0 -51 -15 -42 -55 13 -59 61 -127 150 -216
74 -73 102 -93 191 -136 126 -62 202 -82 334 -90 120 -7 218 7 339 48 49 16
90 28 93 26 6 -7 -155 -77 -214 -93 -37 -9 -101 -15 -178 -15 -123 0 -171 6
-285 36 -36 10 -76 17 -90 16 -20 -1 -22 1 -10 9 13 8 12 10 -2 10 -10 0 -18
-4 -18 -10 0 -5 -17 -14 -37 -20 -37 -11 -66 -11 -450 6 -68 3 -123 9 -123 15
0 5 -23 9 -51 9 -31 0 -48 -4 -44 -10 3 -5 -1 -10 -9 -10 -23 0 -20 -28 4 -35
11 -3 20 -13 20 -22 0 -17 45 -63 61 -63 5 0 22 -12 37 -26 15 -14 41 -32 57
-41 17 -8 39 -26 50 -38 11 -13 38 -29 60 -35 22 -7 47 -19 57 -27 9 -8 22
-15 30 -17 7 -1 20 -6 28 -11 38 -24 239 -86 252 -79 5 3 8 1 8 -4 0 -5 21
-13 47 -17 26 -4 64 -15 85 -26 20 -10 42 -19 48 -19 6 0 39 -13 73 -29 34
-16 72 -32 85 -35 20 -7 27 -17 23 -39 0 -4 8 -7 19 -7 29 0 25 -18 -6 -26
-34 -9 -178 12 -274 38 -41 12 -87 23 -102 25 -27 5 -27 5 -16 -33 13 -47 66
-131 126 -199 51 -58 183 -201 261 -285 29 -32 52 -60 50 -63 -2 -3 8 -15 24
-27 15 -12 25 -25 22 -30 -3 -5 -1 -11 4 -14 21 -13 8 -56 -23 -75 -63 -40
-138 -137 -238 -311 -72 -126 -283 -547 -292 -583 -7 -30 7 -57 29 -57 24 0
76 52 142 142 l66 89 26 -39 c14 -22 43 -60 65 -85 34 -40 44 -46 92 -52 30
-3 54 -10 54 -14 0 -5 -8 -19 -18 -32 -33 -44 -62 -100 -57 -110 4 -5 2 -9 -3
-9 -5 0 -13 -8 -16 -17 -9 -23 -36 -71 -59 -103 -9 -13 -17 -32 -17 -42 0 -10
-4 -18 -9 -18 -5 0 -11 -13 -14 -30 -4 -16 -11 -30 -17 -30 -7 0 -8 6 0 19 5
11 10 28 10 38 -2 92 -135 -428 -181 -705 -12 -73 -25 -130 -28 -127 -3 3 -13
45 -23 93 -78 370 -110 574 -128 822 -17 249 -30 360 -51 440 -40 157 -60 337
-66 582 -6 261 4 392 43 565 36 159 80 239 157 287 33 20 36 40 5 31 -35 -11
-128 -84 -128 -100 0 -8 -5 -15 -11 -15 -5 0 -8 -3 -5 -8 2 -4 -4 -25 -15 -47
-10 -22 -21 -55 -25 -73 -3 -18 -10 -35 -15 -38 -5 -3 -9 -18 -9 -35 0 -16 -4
-29 -9 -29 -5 0 -9 -10 -9 -22 0 -13 -5 -41 -11 -64 -36 -134 -52 -270 -52
-449 0 -88 -2 -175 -6 -194 -6 -33 -44 -76 -110 -123 -79 -57 -146 -112 -227
-187 -48 -45 -99 -84 -112 -87 -14 -4 -69 2 -122 13 -141 27 -158 19 -101 -53
46 -58 92 -86 150 -92 l51 -5 151 154 c84 85 179 175 212 200 62 48 125 89
136 89 4 0 2 -21 -4 -47 -12 -62 -13 -491 -1 -708 5 -100 6 -275 1 -425 -11
-361 -16 -420 -33 -420 -10 0 -14 -13 -14 -47 0 -39 -5 -52 -32 -80 -24 -25
-28 -33 -15 -33 24 0 21 -15 -8 -38 -14 -11 -25 -25 -25 -31 0 -6 -7 -11 -15
-11 -11 0 -15 -11 -15 -40 0 -36 -2 -40 -25 -40 -22 0 -25 -4 -25 -40 0 -22
-4 -40 -10 -40 -5 0 -10 -18 -10 -40 0 -22 5 -40 10 -40 6 0 10 -18 10 -40 0
-29 -4 -40 -15 -40 -16 0 -20 -12 -7 -24 12 -13 9 -56 -5 -56 -7 0 -13 11 -13
25 0 14 -8 33 -18 43 -9 9 -23 38 -31 62 -7 25 -26 72 -42 105 -16 33 -29 65
-29 72 0 7 -4 13 -10 13 -5 0 -10 6 -10 13 0 10 -57 156 -65 165 -11 12 12
-111 25 -140 10 -21 14 -38 9 -38 -5 0 -9 -19 -9 -42 0 -34 3 -40 11 -28 9 12
10 12 5 -3 -3 -10 -6 -25 -6 -34 0 -9 -6 -13 -15 -9 -11 4 -15 -1 -15 -19 0
-16 -6 -25 -15 -25 -11 0 -15 -11 -15 -40 0 -36 -2 -40 -25 -40 -25 0 -25 -1
-25 -80 l0 -80 695 0 c497 0 695 3 695 11 0 6 8 23 19 37 27 40 160 293 214
407 56 120 96 224 110 285 12 53 -6 187 -83 615 -26 149 -50 296 -52 327 l-3
57 86 84 c96 92 124 135 114 175 -11 44 -192 476 -236 563 l-28 56 -94 6 c-97
6 -127 13 -127 28 0 17 61 39 115 41 48 2 55 5 52 20 -6 22 33 51 135 103 l76
39 34 -35 c83 -90 118 -133 118 -146 0 -7 6 -13 13 -13 7 0 20 -12 29 -28 10
-15 28 -40 43 -56 14 -16 25 -34 25 -40 0 -6 11 -23 25 -38 14 -15 25 -31 25
-36 0 -5 7 -15 16 -23 26 -21 118 -209 130 -265 9 -42 8 -58 -5 -90 -17 -41
-87 -151 -158 -247 -41 -56 -42 -59 -27 -83 21 -31 60 -41 93 -23 18 10 34 40
61 114 49 133 109 278 121 290 12 12 10 -164 -1 -180 -4 -5 -11 -31 -14 -57
-7 -44 -46 -180 -66 -223 -5 -11 -13 -36 -19 -55 -5 -19 -24 -78 -41 -130 -18
-52 -41 -124 -52 -160 -11 -36 -26 -78 -33 -95 -7 -16 -25 -70 -40 -120 -15
-49 -31 -99 -35 -110 -38 -97 -53 -141 -99 -285 -29 -91 -74 -232 -102 -315
-27 -82 -51 -157 -53 -166 -3 -9 -21 -65 -40 -124 -20 -59 -36 -109 -36 -111
0 -2 882 -4 1960 -4 l1960 0 0 196 0 195 -22 -6 c-40 -12 -311 -137 -352 -163
-31 -19 -40 -21 -48 -10 -23 34 -74 142 -149 315 -381 878 -529 1232 -529
1263 0 14 7 17 33 15 17 -2 79 -8 137 -14 58 -5 195 -15 305 -21 252 -13 493
-29 568 -36 l57 -5 0 304 0 304 -87 7 c-177 13 -502 26 -1063 41 -192 5 -381
13 -476 19 -53 4 -129 41 -509 248 -77 42 -178 97 -225 121 l-85 45 -26 70
c-92 246 -341 519 -540 589 -61 22 -94 46 -84 62 4 7 28 22 54 32 100 43 241
113 241 121 0 4 5 8 10 8 9 0 87 47 100 60 3 3 22 14 43 25 48 25 167 122 167
136 0 6 4 8 9 5 5 -4 32 16 59 44 27 27 54 50 59 50 5 0 16 11 23 25 7 14 17
25 22 25 14 0 148 142 148 157 0 7 4 12 9 10 18 -5 172 209 252 350 13 24 31
43 39 43 8 0 35 -16 59 -35 95 -76 255 -134 368 -135 149 0 309 69 427 186 83
82 203 237 238 309 64 129 93 267 85 413 -6 126 -32 219 -87 312 -87 149 -265
268 -412 277 -137 8 -137 8 -82 117 160 312 215 430 229 486 9 36 36 124 60
195 95 284 90 256 89 495 0 257 -11 506 -25 575 -20 96 -109 342 -167 460 -11
22 -32 90 -46 150 -90 377 -224 601 -470 787 -78 59 -250 149 -348 182 -75 25
-250 38 -348 25 -175 -21 -276 -54 -440 -144 -123 -68 -193 -113 -471 -303
-134 -92 -164 -91 -99 4 115 172 359 343 595 418 195 62 432 78 635 42 52 -9
102 -16 110 -16 41 2 -196 176 -285 210 -17 6 -43 18 -60 25 -114 53 -288 95
-392 95 -113 0 -324 -34 -372 -60 -9 -5 -34 -17 -56 -27 -100 -43 -286 -163
-346 -222 -9 -9 -52 -46 -95 -83 -43 -37 -126 -118 -184 -180 -346 -370 -514
-528 -559 -528 -53 0 -81 58 -95 200 l-6 55 163 160 c181 180 277 260 451 376
202 136 447 243 686 299 127 29 135 36 54 43 -178 17 -403 0 -522 -39 -26 -9
-98 -41 -160 -71 -106 -52 -146 -80 -295 -201 -99 -80 -260 -254 -346 -374
-19 -26 -31 -34 -55 -33 -28 0 -34 6 -63 65 -18 36 -33 79 -33 95 0 17 -9 53
-19 80 -111 295 -126 367 -87 432 23 38 10 63 -27 56 -15 -3 -34 4 -53 20 -16
13 -36 22 -44 19z m376 -1638 c33 -16 90 -47 128 -69 l69 -39 186 -8 c175 -7
334 -26 426 -50 22 -6 45 -11 50 -12 32 -7 103 -32 120 -42 11 -7 31 -15 44
-19 14 -4 47 -22 75 -40 28 -17 76 -45 106 -61 30 -16 70 -44 87 -61 18 -18
37 -33 43 -33 5 0 10 -4 10 -9 0 -10 68 -81 77 -81 18 0 104 -137 132 -210 19
-51 24 -84 24 -150 0 -95 -3 -121 -18 -133 -6 -4 -1 -7 10 -6 35 3 46 -1 39
-12 -3 -6 -16 -8 -28 -4 -114 34 -140 38 -236 38 -151 0 -179 -10 -273 -101
-93 -90 -137 -147 -137 -176 0 -36 92 -117 183 -161 61 -30 83 -46 85 -62 3
-19 -4 -23 -55 -33 -144 -28 -217 -62 -406 -187 -85 -57 -198 -178 -232 -248
-25 -54 -45 -77 -45 -53 0 17 -126 67 -199 79 -107 17 -214 11 -287 -16 -69
-26 -110 -32 -99 -15 3 6 -18 56 -47 112 -43 83 -69 119 -138 188 -142 143
-276 207 -500 240 -110 16 -156 17 -390 10 -292 -9 -342 -17 -468 -76 -44 -22
-97 -58 -136 -95 -73 -67 -79 -50 -11 28 41 47 44 53 54 143 19 152 58 329
102 461 120 356 303 596 599 783 177 112 203 123 403 166 100 21 191 40 202
43 11 2 104 4 206 3 186 -2 186 -2 245 -32z m-973 -1559 c293 -32 428 -84 558
-214 125 -125 164 -233 164 -451 0 -145 -18 -227 -71 -332 -70 -138 -208 -258
-353 -307 -71 -24 -88 -25 -271 -26 -208 0 -277 8 -420 52 -110 33 -164 61
-239 123 -58 48 -130 134 -144 173 -11 29 0 19 33 -28 38 -56 93 -113 140
-146 47 -34 73 -46 35 -18 -63 48 -146 134 -176 180 -17 27 -36 46 -42 42 -5
-3 -7 -2 -4 4 4 5 -7 41 -23 80 -56 133 -75 341 -46 504 12 67 48 169 59 169
2 0 2 -37 0 -82 -2 -57 0 -77 6 -63 5 11 10 43 10 71 1 28 8 74 17 103 13 47
21 56 75 91 56 36 149 73 209 83 63 11 355 5 483 -8z m2198 -165 c-7 -4 -12
-11 -10 -16 1 -5 -10 -16 -25 -24 -28 -15 -48 -31 -114 -90 -19 -17 -38 -30
-43 -30 -5 0 -9 -5 -9 -11 0 -6 -11 -20 -25 -31 -14 -11 -25 -24 -25 -30 0 -5
-11 -24 -25 -42 -14 -17 -29 -36 -33 -41 -5 -6 -14 -25 -20 -44 -6 -18 -22
-41 -36 -52 -13 -10 -31 -37 -40 -59 -30 -77 -93 -120 -178 -124 -15 0 -34
-10 -43 -21 -15 -19 -16 -14 -10 65 7 93 41 207 83 279 96 164 292 267 531
278 19 0 29 -2 22 -7z m410 -857 c-12 -20 -14 -14 -5 12 4 9 9 14 11 11 3 -2
0 -13 -6 -23z m-27 -65 c-35 -68 -96 -135 -152 -165 -57 -31 -93 -38 -167 -33
-29 2 -19 5 35 9 49 5 92 15 124 31 53 27 132 113 155 168 8 18 16 31 18 28 2
-2 -3 -19 -13 -38z m622 -189 c-63 -95 -204 -194 -301 -213 -29 -6 -28 -5 9
17 113 66 191 123 248 180 35 36 65 63 67 61 2 -2 -8 -22 -23 -45z m-2788
-2718 c-2 -127 -6 -227 -10 -223 -14 15 -19 212 -7 330 6 67 14 122 16 122 2
0 3 -103 1 -229z m714 -148 c6 -8 12 -36 12 -62 0 -81 -60 -158 -151 -193 -24
-9 -41 -12 -38 -8 3 5 1 11 -5 15 -5 3 -10 0 -10 -7 0 -9 -3 -9 -10 2 -12 20
-4 52 36 132 43 86 102 149 132 141 12 -3 27 -12 34 -20z m1318 -2003 c0 -5
-7 -10 -15 -10 -8 0 -15 5 -15 10 0 6 7 10 15 10 8 0 15 -4 15 -10z m93 3
c-13 -2 -33 -2 -45 0 -13 2 -3 4 22 4 25 0 35 -2 23 -4z"/>
<path d="M5202 7214 c9 -20 8 -28 -8 -45 -28 -31 -61 -45 -139 -59 -109 -19
-240 -57 -298 -86 -101 -51 -212 -137 -201 -156 3 -4 1 -8 -4 -8 -5 0 -12 -9
-15 -21 -5 -20 -3 -20 136 -16 101 3 171 10 242 27 80 18 130 23 255 24 85 0
180 -3 211 -8 52 -8 57 -7 73 15 44 64 -8 212 -99 281 -27 21 -76 46 -107 57
l-57 19 11 -24z"/>
<path d="M5080 6368 c18 -7 21 -12 10 -15 -16 -5 -23 -8 -105 -44 -27 -12 -64
-23 -81 -24 -43 -3 -117 -81 -141 -148 -14 -42 -18 -83 -18 -207 l0 -155 37
-75 c63 -130 144 -188 248 -178 106 10 199 101 244 240 66 198 34 439 -72 545
-35 35 -104 73 -132 72 -8 0 -4 -5 10 -11z"/>
<path d="M4053 6230 c-13 -6 -23 -18 -23 -30 0 -20 37 -70 52 -70 4 0 8 25 8
55 0 58 -1 59 -37 45z"/>
<path d="M4365 5435 c23 -18 183 -70 191 -63 2 3 -24 13 -58 23 -35 9 -83 25
-108 36 -33 14 -39 15 -25 4z"/>
<path d="M4578 5363 c6 -2 18 -2 25 0 6 3 1 5 -13 5 -14 0 -19 -2 -12 -5z"/>
<path d="M4638 5353 c7 -3 16 -2 19 1 4 3 -2 6 -13 5 -11 0 -14 -3 -6 -6z"/>
<path d="M3728 6003 c6 -2 18 -2 25 0 6 3 1 5 -13 5 -14 0 -19 -2 -12 -5z"/>
<path d="M3700 5965 c-7 -9 -15 -13 -17 -11 -6 6 -53 -43 -53 -55 0 -4 -3 -16
-7 -26 -5 -14 -1 -13 21 7 14 13 24 30 22 37 -3 7 0 15 6 19 7 4 8 3 4 -4 -13
-21 4 -13 29 14 14 15 25 29 25 30 0 10 -19 2 -30 -11z"/>
<path d="M4735 5150 c11 -5 15 -9 8 -9 -6 -1 1 -14 15 -29 15 -16 38 -43 52
-61 14 -18 45 -47 70 -64 25 -17 47 -33 50 -37 7 -8 49 -24 137 -50 91 -28
268 -26 297 3 10 9 29 17 43 17 17 0 27 7 30 20 3 12 12 20 22 18 21 -4 107
86 85 90 -8 2 -25 -3 -37 -10 -45 -29 -192 -58 -296 -58 -75 0 -225 31 -245
51 -6 5 -15 9 -22 9 -20 0 -172 90 -178 106 -3 8 -16 14 -28 13 -22 0 -22 -1
-3 -9z"/>
<path d="M1621 3584 c-40 -12 -89 -43 -135 -86 -11 -10 -28 -20 -38 -24 -10
-3 -18 -9 -18 -13 0 -5 -19 -21 -42 -37 -24 -15 -60 -45 -80 -66 -21 -21 -42
-38 -48 -38 -12 0 -13 27 -2 34 14 8 -2 89 -24 127 -22 38 -82 61 -112 43 -56
-36 -69 -103 -33 -166 21 -34 68 -75 82 -71 4 1 2 -9 -5 -22 -9 -20 -21 -25
-66 -31 -30 -4 -93 -19 -140 -34 -73 -23 -97 -27 -170 -22 -104 5 -157 -14
-179 -66 -9 -19 -25 -35 -38 -38 -13 -4 -23 -12 -23 -19 0 -19 73 -81 128
-109 27 -14 60 -39 73 -55 13 -17 34 -44 47 -60 19 -25 32 -31 80 -36 200 -23
383 -85 458 -157 46 -43 101 -60 136 -42 90 47 196 -35 239 -184 19 -68 26
-168 11 -174 -5 -1 -15 -20 -24 -42 -11 -29 -23 -41 -49 -50 -19 -7 -68 -32
-109 -57 -41 -25 -105 -60 -143 -78 -81 -39 -96 -53 -216 -198 -51 -62 -96
-113 -99 -113 -4 0 -19 -10 -34 -23 l-26 -23 34 -23 c54 -37 103 -50 194 -50
118 -1 208 15 253 45 l37 24 -2 83 c-1 84 6 110 83 287 46 107 64 120 162 123
52 1 69 -3 104 -26 24 -15 46 -27 51 -27 11 0 93 -88 111 -120 29 -49 51 -99
51 -115 0 -8 4 -15 9 -15 5 0 11 -17 14 -38 6 -32 12 -40 49 -56 65 -27 220
-41 325 -29 115 14 130 30 132 134 1 45 7 82 16 96 8 12 15 28 15 35 0 17 76
67 113 75 15 3 27 10 27 15 0 9 699 3 871 -7 l85 -6 46 58 c32 40 48 72 53
103 17 106 77 180 213 259 39 23 72 46 72 51 0 6 -26 10 -57 10 -79 1 -259 8
-498 20 -110 5 -292 12 -405 15 -243 7 -516 30 -594 50 -76 20 -158 76 -201
139 -19 28 -35 56 -35 61 0 33 -91 217 -124 251 -6 6 -29 31 -51 55 -50 54
-112 104 -142 113 -11 4 -27 13 -33 21 -7 8 -23 15 -35 15 -12 0 -28 7 -35 15
-7 8 -18 15 -25 15 -19 0 -84 76 -91 107 -4 16 -12 35 -19 43 -7 8 -16 25 -19
36 -8 26 -83 104 -99 103 -7 -1 -32 -7 -56 -15z m107 -673 c27 -1 32 -5 32
-26 0 -42 -31 -105 -59 -119 -14 -7 -48 -19 -76 -25 -46 -12 -51 -11 -67 9
-48 59 -26 145 40 155 20 4 44 7 52 9 8 1 22 1 30 0 8 -1 30 -3 48 -3z"/>
<path d="M566 3478 c-19 -29 -12 -58 15 -58 26 0 37 46 16 67 -13 14 -17 13
-31 -9z"/>
<path d="M9556 3341 c-7 -11 22 -23 35 -15 5 3 7 10 4 15 -8 12 -32 12 -39 0z"/>
<path d="M5557 3333 c-10 -10 -8 -66 3 -83 7 -11 10 0 10 38 0 53 -1 57 -13
45z"/>
<path d="M0 2496 l0 -184 63 -6 c34 -3 105 -8 158 -11 l97 -6 61 84 c33 46 79
121 101 165 50 98 46 122 -23 123 -23 0 -64 2 -92 4 -27 2 -121 6 -207 10
l-158 6 0 -185z"/>
<path d="M1399 2428 c0 -7 -2 -25 -4 -39 -5 -37 9 -56 29 -40 19 16 20 50 2
74 -16 20 -26 22 -27 5z"/>
<path d="M1665 2170 c-3 -5 -1 -10 4 -10 6 0 11 5 11 10 0 6 -2 10 -4 10 -3 0
-8 -4 -11 -10z"/>
<path d="M735 1885 c-19 -31 -35 -60 -35 -67 0 -6 -28 -37 -62 -69 l-62 -59
20 -27 c44 -59 189 -75 307 -33 37 13 67 29 67 35 0 6 -17 23 -37 36 -44 28
-96 110 -118 186 -10 32 -21 53 -30 53 -8 0 -30 -25 -50 -55z"/>
<path d="M5801 1584 c0 -11 3 -14 6 -6 3 7 2 16 -1 19 -3 4 -6 -2 -5 -13z"/>
<path d="M3972 1508 c-1 -48 -52 -214 -70 -228 -4 -3 -36 -61 -71 -130 -35
-69 -73 -136 -85 -150 -12 -14 -28 -36 -34 -50 -14 -29 -33 -59 -47 -76 -6 -6
-19 -32 -30 -58 -10 -25 -23 -46 -27 -46 -4 0 -8 -11 -8 -25 0 -14 -4 -25 -10
-25 -5 0 -10 -7 -10 -14 0 -8 -13 -35 -30 -59 -16 -25 -30 -48 -30 -53 0 -10
-63 -108 -72 -112 -5 -2 -8 -12 -8 -23 0 -10 -5 -19 -10 -19 -6 0 -14 -10 -19
-23 -5 -13 -21 -37 -35 -54 -15 -18 -40 -60 -56 -95 -32 -66 -51 -100 -62
-108 -7 -6 -53 -105 -63 -137 l-6 -23 441 0 442 0 -5 617 c-4 639 -7 679 -50
850 -26 102 -44 118 -45 41z"/>
<path d="M5792 1540 c0 -14 2 -19 5 -12 2 6 2 18 0 25 -3 6 -5 1 -5 -13z"/>
<path d="M2820 1523 c-38 -5 -189 -33 -241 -44 -26 -6 -71 -14 -100 -19 -30
-5 -130 -22 -224 -40 -176 -32 -359 -65 -670 -120 -211 -37 -249 -53 -281
-121 -37 -76 -56 -83 -208 -75 -72 3 -189 11 -261 17 -71 6 -152 12 -180 14
-61 4 -401 22 -548 30 l-107 5 0 -94 0 -94 38 -6 c36 -7 85 -12 352 -35 214
-18 451 -41 505 -48 28 -3 100 -7 161 -7 101 -1 114 -3 147 -26 43 -30 77
-102 77 -166 0 -43 14 -81 35 -96 19 -14 77 -8 233 26 86 19 191 42 232 50
172 36 209 45 297 75 51 17 175 52 275 77 101 24 208 51 238 58 139 35 142 40
144 234 1 135 3 151 25 192 13 25 46 67 72 93 52 52 61 84 32 108 -10 8 -29
14 -43 12z"/>
<path d="M6241 147 c-32 -69 -51 -98 -51 -75 0 9 7 23 15 32 8 8 15 21 15 28
0 7 -12 -5 -25 -27 -16 -25 -22 -47 -19 -62 5 -17 2 -23 -10 -23 -9 0 -16 -4
-16 -10 0 -5 17 -10 38 -10 l38 0 27 87 c30 102 23 138 -12 60z"/>
</g>
</svg>
